<?xml version="1.0" encoding="utf-8"?>

<!-- License Agreement at http://iconmonstr.com/license/ -->

<!DOCTYPE svg PUBLIC "-//W3C//DTD SVG 1.1//EN" "http://www.w3.org/Graphics/SVG/1.1/DTD/svg11.dtd">
<svg version="1.1" xmlns="http://www.w3.org/2000/svg" xmlns:xlink="http://www.w3.org/1999/xlink" x="0px" y="0px"
	 width="512px" height="512px" viewBox="0 0 512 512" style="enable-background:new 0 0 512 512;" xml:space="preserve">
<path id="drop-16-icon" d="M256,111.307c62.799,93.327,103,158.339,103,214.634c0,56.093-46.203,101.726-103,101.726
	c-56.798,0-103-45.633-103-101.726C153,269.646,193.2,204.634,256,111.307z M256,50
	c-83.604,123.553-137.334,200.837-137.334,275.941C118.666,401.112,180.107,462,256,462s137.334-60.888,137.334-136.059
	C393.334,250.837,339.604,173.553,256,50z M221.666,256c-9.488,0-17.166,7.678-17.166,17.167c0,9.488,7.678,17.167,17.166,17.167
	c9.473,0,17.167-7.679,17.167-17.167C238.833,263.678,231.139,256,221.666,256z M290.334,256c-9.489,0-17.168,7.678-17.168,17.167
	c0,9.488,7.679,17.167,17.168,17.167c9.471,0,17.166-7.679,17.166-17.167C307.5,263.678,299.805,256,290.334,256z M192.966,371.121
	c17.301-13.663,36.312-22.096,63.034-22.096c26.689,0,45.699,8.433,63.033,22.096l5.633-5.633
	c-12.908-19.682-36.613-40.821-68.666-40.821c-32.054,0-55.759,21.14-68.667,40.821L192.966,371.121z"/>
</svg>
